<?xml version="1.0" encoding="UTF-8"?>
<!DOCTYPE svg PUBLIC "-//W3C//DTD SVG 1.1//EN" "http://www.w3.org/Graphics/SVG/1.1/DTD/svg11.dtd">
<!-- Creator: CorelDRAW 2021 (64-Bit) -->
<svg xmlns="http://www.w3.org/2000/svg" xml:space="preserve" width="252.458mm" height="30.1185mm" version="1.1" style="shape-rendering:geometricPrecision; text-rendering:geometricPrecision; image-rendering:optimizeQuality; fill-rule:evenodd; clip-rule:evenodd"
viewBox="0 0 249.8153 29.8033"
 xmlns:xlink="http://www.w3.org/1999/xlink"
 xmlns:xodm="http://www.corel.com/coreldraw/odm/2003">
 <defs>
  <style type="text/css">
   <![CDATA[
    .fil1 {fill:#FEFEFE}
    .fil3 {fill:#FEFEFE}
    .fil2 {fill:#303948}
    .fil0 {fill:#7E16CD}
    .fil4 {fill:#303948;fill-rule:nonzero}
    .fil5 {fill:#7E16CD;fill-rule:nonzero}
   ]]>
  </style>
 </defs>
 <g id="Capa_x0020_1">
  <metadata id="CorelCorpID_0Corel-Layer"/>
  <g id="_3298960538512">
   <g>
    <circle class="fil0" cx="19.0997" cy="14.9016" r="14.9016"/>
    <circle class="fil1" cx="19.0997" cy="14.9016" r="9.5908"/>
    <rect class="fil2" x="-0" y="8.9024" width="38.1994" height="11.9985" rx="4.1316" ry="4.8516"/>
    <g>
     <g>
      <rect class="fil3" x="6.0704" y="10.6267" width="2.6332" height="8.5499" rx="0.5166" ry="0.2342"/>
      <rect class="fil3" transform="matrix(1.52458E-14 -0.575649 0.261025 6.91313E-15 3.1121 16.2183)" width="4.5743" height="32.7551" rx="0.8974" ry="0.8974"/>
     </g>
     <g>
      <circle class="fil3" cx="30.8122" cy="11.743" r="1.1163"/>
      <circle class="fil3" transform="matrix(3.10866E-14 -1.17376 1.17376 3.10866E-14 27.6536 14.9016)" r="0.951"/>
      <circle class="fil3" cx="30.8122" cy="18.0603" r="1.1163"/>
      <circle class="fil3" transform="matrix(3.10866E-14 -1.17376 1.17376 3.10866E-14 33.9709 14.9016)" r="0.951"/>
     </g>
    </g>
    <g>
     <rect class="fil3" x="14.7381" y="16.4236" width="3.1502" height="1.6736" rx="0.7911" ry="0.7911"/>
     <rect class="fil3" x="20.311" y="16.4236" width="3.1502" height="1.6736" rx="0.7911" ry="0.7911"/>
    </g>
   </g>
   <path class="fil4" d="M52.489 25.6088c-1.6578,0 -3.1838,-0.2584 -4.5784,-0.7752 -1.3945,-0.5168 -2.6037,-1.2531 -3.6275,-2.2087 -1.024,-0.9557 -1.8187,-2.0868 -2.3843,-3.3935 -0.5656,-1.3068 -0.8483,-2.75 -0.8483,-4.3297 0,-1.5798 0.2827,-3.023 0.8483,-4.3297 0.5656,-1.3068 1.3653,-2.4379 2.3989,-3.3936 1.0337,-0.9556 2.2574,-1.6918 3.6715,-2.2086 1.4139,-0.5168 2.9693,-0.7753 4.666,-0.7753 2.0283,0 3.8373,0.3413 5.4268,1.0239 1.5895,0.6827 2.9011,1.6578 3.9348,2.9256l-4.4175 3.8908c-0.6436,-0.7412 -1.3408,-1.3018 -2.0918,-1.6822 -0.7509,-0.3803 -1.5845,-0.5705 -2.5012,-0.5705 -0.7607,0 -1.4481,0.1171 -2.0625,0.3511 -0.6143,0.234 -1.136,0.5753 -1.565,1.024 -0.4291,0.4486 -0.7607,0.9849 -0.9947,1.609 -0.234,0.6241 -0.3511,1.336 -0.3511,2.1356 0,0.7606 0.1171,1.4578 0.3511,2.0917 0.234,0.6339 0.5656,1.1751 0.9947,1.6236 0.4291,0.4486 0.9409,0.7948 1.5359,1.0385 0.5948,0.2438 1.2628,0.3657 2.0039,0.3657 0.7801,0 1.5408,-0.1317 2.2819,-0.3949 0.7412,-0.2633 1.531,-0.7168 2.3696,-1.3604l3.8617 4.7393c-1.2482,0.8386 -2.6719,1.4822 -4.2712,1.9309 -1.5993,0.4486 -3.1498,0.6728 -4.6515,0.6728zm2.9255 -3.4813l0 -7.7818 5.9973 0 0 8.6594 -5.9973 -0.8776z"/>
   <polygon id="_1" class="fil4" points="64.3665,25.1408 64.3665,4.6625 71.2706,4.6625 71.2706,19.7872 80.515,19.7872 80.515,25.1408 "/>
   <path id="_2" class="fil4" d="M82.4167 25.1408l0 -20.4783 9.8588 0c1.9113,0 3.5641,0.3121 4.9587,0.9362 1.3945,0.6241 2.472,1.5164 3.2326,2.6768 0.7607,1.1604 1.1409,2.5305 1.1409,4.1103 0,1.5797 -0.3803,2.945 -1.1409,4.0956 -0.7607,1.1507 -1.8382,2.043 -3.2326,2.6768 -1.3946,0.6339 -3.0474,0.9508 -4.9587,0.9508l-6.0265 0 3.0717 -2.9547 0 7.9865 -6.9041 0zm6.9041 -7.2259l-3.0717 -3.1303 5.5876 0c0.9557,0 1.6626,-0.2145 2.121,-0.6436 0.4584,-0.4291 0.6874,-1.0142 0.6874,-1.7552 0,-0.7412 -0.2291,-1.3263 -0.6874,-1.7553 -0.4584,-0.4291 -1.1653,-0.6436 -2.121,-0.6436l-5.5876 0 3.0717 -3.1303 0 11.0583z"/>
   <path class="fil5" d="M116.3598 22.3743c-1.1422,0 -2.1915,-0.1823 -3.148,-0.547 -0.9565,-0.3646 -1.7891,-0.8841 -2.4978,-1.5585 -0.7087,-0.6744 -1.2592,-1.4656 -1.6514,-2.3739 -0.3922,-0.9083 -0.5883,-1.906 -0.5883,-2.9932 0,-1.0872 0.1961,-2.0849 0.5883,-2.9931 0.3923,-0.9083 0.9462,-1.6996 1.6617,-2.374 0.7156,-0.6743 1.5552,-1.1938 2.5185,-1.5585 0.9633,-0.3646 2.023,-0.547 3.179,-0.547 1.2799,0 2.4324,0.2133 3.4576,0.6399 1.0253,0.4266 1.8888,1.0459 2.5907,1.8578l-2.1468 1.9817c-0.523,-0.5505 -1.0941,-0.9599 -1.7134,-1.2283 -0.6193,-0.2684 -1.2936,-0.4025 -2.023,-0.4025 -0.7019,0 -1.3418,0.1101 -1.9198,0.3303 -0.578,0.2202 -1.0768,0.5367 -1.4966,0.9496 -0.4198,0.4128 -0.7431,0.9015 -0.9702,1.4657 -0.2271,0.5642 -0.3406,1.1903 -0.3406,1.8784 0,0.6744 0.1135,1.2936 0.3406,1.8578 0.2271,0.5642 0.5505,1.0562 0.9702,1.476 0.4198,0.4198 0.9151,0.7397 1.4863,0.9598 0.5711,0.2202 1.2007,0.3303 1.8888,0.3303 0.6605,0 1.3039,-0.1067 1.9301,-0.3199 0.6262,-0.2133 1.2351,-0.5746 1.8269,-1.0838l1.8991 2.4153c-0.7844,0.5917 -1.6962,1.0459 -2.7352,1.3624 -1.039,0.3166 -2.0746,0.4748 -3.1067,0.4748zm2.7868 -2.2707l0 -5.4291 3.0551 0 0 5.8626 -3.0551 -0.4335z"/>
   <path id="_1_0" class="fil5" d="M123.399 22.1266l6.4405 -14.45 3.3029 0 6.4612 14.45 -3.5093 0 -5.2845 -12.7573 1.3211 0 -5.3052 12.7573 -3.4267 0zm3.2202 -3.0964l0.8876 -2.539 7.4314 0 0.9083 2.539 -9.2273 0z"/>
   <polygon id="_2_1" class="fil5" points="141.1105,22.1266 141.1105,7.6766 143.8766,7.6766 150.0282,17.8741 148.5625,17.8741 154.6108,7.6766 157.3564,7.6766 157.3976,22.1266 154.2599,22.1266 154.2392,12.4864 154.8172,12.4864 149.9868,20.599 148.48,20.599 143.5463,12.4864 144.2482,12.4864 144.2482,22.1266 "/>
   <path id="_3" class="fil5" d="M163.9002 13.4979l6.9566 0 0 2.601 -6.9566 0 0 -2.601zm0.2477 5.9451l7.8649 0 0 2.6835 -11.1884 0 0 -14.45 10.92 0 0 2.6836 -7.5966 0 0 9.0828z"/>
   <path id="_4" class="fil5" d="M185.2654 22.3743c-1.156,0 -2.2638,-0.1548 -3.3234,-0.4644 -1.0597,-0.3097 -1.9129,-0.7122 -2.5597,-1.2076l1.1354 -2.5185c0.6193,0.4404 1.3521,0.8016 2.1984,1.0837 0.8463,0.2821 1.703,0.4232 2.57,0.4232 0.6605,0 1.1939,-0.0654 1.5998,-0.1961 0.406,-0.1307 0.7053,-0.3131 0.898,-0.547 0.1927,-0.2339 0.2889,-0.5023 0.2889,-0.8051 0,-0.3853 -0.1513,-0.6915 -0.4541,-0.9186 -0.3028,-0.2271 -0.7019,-0.4128 -1.1973,-0.5574 -0.4954,-0.1445 -1.0424,-0.2821 -1.641,-0.4128 -0.5987,-0.1307 -1.1973,-0.2924 -1.7959,-0.4851 -0.5987,-0.1927 -1.1457,-0.4404 -1.6411,-0.7431 -0.4955,-0.3028 -0.8979,-0.7019 -1.2076,-1.1973 -0.3096,-0.4954 -0.4644,-1.1285 -0.4644,-1.8991 0,-0.8257 0.2236,-1.5792 0.6709,-2.2604 0.4472,-0.6812 1.1215,-1.2247 2.0229,-1.6308 0.9015,-0.406 2.0334,-0.609 3.3958,-0.609 0.9083,0 1.8028,0.1067 2.6835,0.3199 0.8808,0.2133 1.6584,0.5334 2.3326,0.9599l-1.0321 2.539c-0.6744,-0.3853 -1.3486,-0.6709 -2.023,-0.8566 -0.6744,-0.1858 -1.3349,-0.2788 -1.9817,-0.2788 -0.6468,0 -1.1767,0.0757 -1.5895,0.2271 -0.4128,0.1514 -0.7087,0.3475 -0.8876,0.5884 -0.1789,0.2408 -0.2684,0.5195 -0.2684,0.836 0,0.3716 0.1514,0.6709 0.4541,0.898 0.3028,0.2271 0.7019,0.4094 1.1973,0.547 0.4955,0.1376 1.0425,0.2753 1.641,0.4128 0.5987,0.1376 1.1973,0.2959 1.796,0.4748 0.5986,0.1789 1.1457,0.4198 1.641,0.7226 0.4955,0.3027 0.898,0.7018 1.2076,1.1972 0.3096,0.4955 0.4645,1.1216 0.4645,1.8785 0,0.8119 -0.2271,1.5551 -0.6812,2.2294 -0.4542,0.6743 -1.1319,1.2179 -2.0334,1.6308 -0.9014,0.4128 -2.0401,0.6193 -3.4164,0.6193z"/>
   <polygon id="_5" class="fil5" points="196.4744,22.1266 196.4744,10.4015 191.8504,10.4015 191.8504,7.6766 204.4425,7.6766 204.4425,10.4015 199.8186,10.4015 199.8186,22.1266 "/>
   <path id="_6" class="fil5" d="M213.0505 22.3743c-1.1422,0 -2.1984,-0.1857 -3.1686,-0.5573 -0.9702,-0.3716 -1.8098,-0.8945 -2.5185,-1.5689 -0.7087,-0.6743 -1.2592,-1.4656 -1.6514,-2.3739 -0.3922,-0.9083 -0.5883,-1.8991 -0.5883,-2.9726 0,-1.0734 0.1961,-2.0643 0.5883,-2.9726 0.3923,-0.9083 0.9462,-1.6995 1.6617,-2.3739 0.7156,-0.6744 1.5552,-1.1973 2.5185,-1.5689 0.9633,-0.3716 2.0092,-0.5573 3.1377,-0.5573 1.1422,0 2.1915,0.1857 3.148,0.5573 0.9565,0.3716 1.7891,0.8945 2.4978,1.5689 0.7087,0.6744 1.2626,1.4622 1.6617,2.3636 0.3991,0.9014 0.5987,1.8957 0.5987,2.9829 0,1.0734 -0.1996,2.0677 -0.5987,2.9829 -0.3991,0.9152 -0.953,1.7066 -1.6617,2.374 -0.7087,0.6674 -1.5413,1.1869 -2.4978,1.5585 -0.9565,0.3716 -1.9989,0.5573 -3.1274,0.5573zm-0.0206 -2.8487c0.6468,0 1.242,-0.1101 1.7856,-0.3303 0.5436,-0.2202 1.0218,-0.5367 1.4346,-0.9496 0.4128,-0.4128 0.7328,-0.9014 0.9599,-1.4656 0.227,-0.5642 0.3406,-1.1904 0.3406,-1.8785 0,-0.6881 -0.1136,-1.3142 -0.3406,-1.8784 -0.2271,-0.5642 -0.5436,-1.0529 -0.9497,-1.4657 -0.4059,-0.4128 -0.8841,-0.7294 -1.4346,-0.9496 -0.5505,-0.2202 -1.1491,-0.3303 -1.7959,-0.3303 -0.6469,0 -1.2421,0.1101 -1.7856,0.3303 -0.5436,0.2202 -1.0218,0.5367 -1.4346,0.9496 -0.4129,0.4128 -0.7328,0.9015 -0.9599,1.4657 -0.2271,0.5642 -0.3406,1.1903 -0.3406,1.8784 0,0.6744 0.1135,1.2971 0.3406,1.8681 0.2271,0.5712 0.5436,1.0632 0.9496,1.476 0.406,0.4128 0.8842,0.7294 1.4347,0.9496 0.5505,0.2202 1.149,0.3303 1.7959,0.3303z"/>
   <path id="_7" class="fil5" d="M223.4546 22.1266l0 -14.45 6.2547 0c1.2936,0 2.4083,0.2099 3.3441,0.6296 0.9358,0.4198 1.6583,1.0218 2.1675,1.8062 0.5092,0.7845 0.7638,1.7203 0.7638,2.8074 0,1.0734 -0.2546,1.999 -0.7638,2.7765 -0.5092,0.7775 -1.2317,1.3727 -2.1675,1.7856 -0.9358,0.4128 -2.0505,0.6193 -3.3441,0.6193l-4.3969 0 1.4863 -1.4657 0 5.491 -3.3441 0zm9.186 0l-3.6125 -5.2432 3.5711 0 3.6539 5.2432 -3.6125 0zm-5.8419 -5.1195l-1.4863 -1.5688 4.2111 0c1.0322,0 1.8028,-0.2236 2.312,-0.6709 0.5092,-0.4473 0.7637,-1.0631 0.7637,-1.8476 0,-0.7982 -0.2545,-1.4174 -0.7637,-1.8578 -0.5092,-0.4404 -1.2799,-0.6606 -2.312,-0.6606l-4.2111 0 1.4863 -1.5895 0 8.1951z"/>
   <path id="_8" class="fil5" d="M241.7028 13.4979l6.9566 0 0 2.601 -6.9566 0 0 -2.601zm0.2477 5.9451l7.8649 0 0 2.6835 -11.1884 0 0 -14.45 10.92 0 0 2.6836 -7.5966 0 0 9.0828z"/>
  </g>
 </g>
</svg>
