<?xml version="1.0" encoding="UTF-8"?>
<!DOCTYPE svg PUBLIC "-//W3C//DTD SVG 1.1//EN" "http://www.w3.org/Graphics/SVG/1.1/DTD/svg11.dtd">
<!-- Creator: CorelDRAW 2021 (64-Bit) -->
<svg xmlns="http://www.w3.org/2000/svg" xml:space="preserve" width="35.218mm" height="27.4772mm" version="1.1" style="shape-rendering:geometricPrecision; text-rendering:geometricPrecision; image-rendering:optimizeQuality; fill-rule:evenodd; clip-rule:evenodd"
viewBox="0 0 1.1009 0.859"
 xmlns:xlink="http://www.w3.org/1999/xlink"
 xmlns:xodm="http://www.corel.com/coreldraw/odm/2003">
 <defs>
  <style type="text/css">
   <![CDATA[
    .fil0 {fill:#FEFEFE}
    .fil1 {fill:#BDBFC1}
   ]]>
  </style>
 </defs>
 <g id="Capa_x0020_1">
  <metadata id="CorelCorpID_0Corel-Layer"/>
  <g id="_3298967238160">
   <path class="fil0" d="M0.5505 0.859c0.1757,0 0.3267,-0.1055 0.3932,-0.2566l-0.1776 0c-0.0507,0.0631 -0.1284,0.1035 -0.2156,0.1035 -0.0872,0 -0.165,-0.0404 -0.2156,-0.1035l-0.1776 0c0.0665,0.1511 0.2175,0.2566 0.3932,0.2566zm0.3932 -0.6024c-0.0665,-0.1511 -0.2175,-0.2566 -0.3932,-0.2566 -0.1757,0 -0.3267,0.1055 -0.3932,0.2566l0.1776 0c0.0507,-0.0631 0.1284,-0.1035 0.2157,-0.1035 0.0872,0 0.165,0.0404 0.2157,0.1035l0.1776 0z"/>
   <path class="fil1" d="M0.1398 0.2566l0.8213 0c0.0769,0 0.1398,0.0629 0.1398,0.1398l0 0.0662c0,0.0769 -0.0629,0.1398 -0.1398,0.1398l-0.8213 0c-0.0769,0 -0.1398,-0.0629 -0.1398,-0.1398l0 -0.0662c0,-0.0769 0.0629,-0.1398 0.1398,-0.1398zm-0.0501 0.196l0 -0.0461c0,-0.0082 0.0067,-0.0149 0.0149,-0.0149l0.0704 0 0 -0.0704c0,-0.0082 0.0067,-0.0149 0.0149,-0.0149l0.0461 0c0.0082,0 0.0149,0.0067 0.0149,0.0149l0 0.0704 0.0704 0c0.0082,0 0.0149,0.0067 0.0149,0.0149l0 0.0461c0,0.0082 -0.0067,0.0149 -0.0149,0.0149l-0.0704 0 0 0.0704c0,0.0082 -0.0067,0.0149 -0.0149,0.0149l-0.0461 0c-0.0082,0 -0.0149,-0.0067 -0.0149,-0.0149l0 -0.0704 -0.0704 0c-0.0082,0 -0.0149,-0.0067 -0.0149,-0.0149zm0.7983 -0.0819c0.0178,0 0.0322,-0.0144 0.0322,-0.0322 0,-0.0178 -0.0144,-0.0322 -0.0322,-0.0322 -0.0178,0 -0.0322,0.0144 -0.0322,0.0322 0,0.0178 0.0144,0.0322 0.0322,0.0322zm-0.0589 0.0589c0,-0.0178 -0.0144,-0.0322 -0.0322,-0.0322 -0.0178,0 -0.0322,0.0144 -0.0322,0.0322 0,0.0178 0.0144,0.0322 0.0322,0.0322 0.0178,0 0.0322,-0.0144 0.0322,-0.0322zm0.0589 0.1232c0.0178,0 0.0322,-0.0144 0.0322,-0.0322 0,-0.0178 -0.0144,-0.0322 -0.0322,-0.0322 -0.0178,0 -0.0322,0.0144 -0.0322,0.0322 0,0.0178 0.0144,0.0322 0.0322,0.0322zm0.1232 -0.1232c0,-0.0178 -0.0144,-0.0322 -0.0322,-0.0322 -0.0178,0 -0.0322,0.0144 -0.0322,0.0322 0,0.0178 0.0144,0.0322 0.0322,0.0322 0.0178,0 0.0322,-0.0144 0.0322,-0.0322z"/>
  </g>
 </g>
</svg>
